<svg xmlns="http://www.w3.org/2000/svg" width="34.875" height="29.239" viewBox="0 0 34.875 29.239">
  <path id="Icon_awesome-twitter" data-name="Icon awesome-twitter" d="M31.29,10.668c.022.32.022.64.022.959,0,9.754-7.192,20.992-20.336,20.992A19.742,19.742,0,0,1,0,29.307a14.328,14.328,0,0,0,1.726.091A14.033,14.033,0,0,0,10.6,26.246a7.193,7.193,0,0,1-6.683-5.117,8.738,8.738,0,0,0,1.35.114,7.337,7.337,0,0,0,1.881-.251,7.325,7.325,0,0,1-5.731-7.241V13.66a7.029,7.029,0,0,0,3.231.936A7.547,7.547,0,0,1,2.434,4.728a20.114,20.114,0,0,0,14.738,7.721,8.587,8.587,0,0,1-.177-1.69,7.262,7.262,0,0,1,7.148-7.378,7.028,7.028,0,0,1,5.222,2.33A13.807,13.807,0,0,0,33.9,3.929a7.321,7.321,0,0,1-3.142,4.066,13.977,13.977,0,0,0,4.116-1.142,15.644,15.644,0,0,1-3.585,3.815Z" transform="translate(0 -3.381)" fill="#fff"/>
</svg>
