<svg xmlns="http://www.w3.org/2000/svg" width="46" height="46.375" viewBox="0 0 46 46.375">
  <path id="Icon_awesome-at" data-name="Icon awesome-at" d="M23.563.563a23.188,23.188,0,0,0,0,46.375A22.93,22.93,0,0,0,36.12,43.177a2.258,2.258,0,0,0,.515-3.307l-.944-1.162a2.207,2.207,0,0,0-2.91-.48A17.04,17.04,0,0,1,6.5,23.75a17.154,17.154,0,0,1,17.065-17.2c9.287,0,17.065,5.387,17.065,14.96,0,3.626-1.956,7.456-5.395,7.825-1.609-.042-1.568-1.2-1.25-2.807L36.156,15.2a2.239,2.239,0,0,0-2.185-2.67H29.8a1.257,1.257,0,0,0-1.246,1.121v.009c-1.363-1.674-3.751-2.036-5.562-2.036-6.917,0-12.783,5.819-12.783,14.161,0,6.106,3.412,9.9,8.9,9.9A9.359,9.359,0,0,0,26.066,32.1c.883,3.189,3.767,3.189,6.558,3.189,10.1,0,13.939-6.7,13.939-13.782C46.563,8.758,36.363.563,23.563.563ZM21.552,29.026c-2.063,0-3.345-1.461-3.345-3.812,0-4.207,2.855-6.8,5.437-6.8,2.067,0,3.3,1.425,3.3,3.812C26.946,26.439,23.8,29.026,21.552,29.026Z" transform="translate(-0.563 -0.563)" fill="#fff"/>
</svg>
