<svg xmlns="http://www.w3.org/2000/svg" width="46" height="30.975" viewBox="0 0 46 30.975">
  <g id="Icon_ionic-ios-videocam" data-name="Icon ionic-ios-videocam" transform="translate(-2.25 -6)">
    <path id="Trazado_1" data-name="Trazado 1" d="M32.259,10.8a.947.947,0,0,0-.708.361L24.97,18.455a1.487,1.487,0,0,0-.3.962V29.571a1.487,1.487,0,0,0,.3.962l6.581,7.295a1,1,0,0,0,.708.361h1.582c.365,0,.654-.508.654-1.136V11.936c0-.628-.3-1.136-.654-1.136Z" transform="translate(13.755 -3)" fill="#fff"/>
    <path id="Trazado_2" data-name="Trazado 2" d="M31.706,39.975H8.531A6.276,6.276,0,0,1,2.25,33.756V15.219A6.266,6.266,0,0,1,8.519,9H31.694a6.266,6.266,0,0,1,6.269,6.219V33.743A6.25,6.25,0,0,1,31.706,39.975Z" transform="translate(0 -3)" fill="#fff"/>
  </g>
</svg>
