<svg xmlns="http://www.w3.org/2000/svg" width="46" height="35.962" viewBox="0 0 46 35.962">
  <path id="Icon_material-people" data-name="Icon material-people" d="M32.864,22.912c3.471,0,6.252-3.442,6.252-7.706S36.335,7.5,32.864,7.5s-6.273,3.442-6.273,7.706S29.393,22.912,32.864,22.912Zm-16.727,0c3.471,0,6.252-3.442,6.252-7.706S19.607,7.5,16.136,7.5s-6.273,3.442-6.273,7.706S12.665,22.912,16.136,22.912Zm0,5.137C11.265,28.05,1.5,31.055,1.5,37.04v6.422H30.773V37.04C30.773,31.055,21.008,28.05,16.136,28.05Zm16.727,0c-.606,0-4.9.5-5.534,1.559,2.648,1.695,5.534,3.63,5.534,7.431v6.422H47.5V37.04C47.5,31.055,37.735,28.05,32.864,28.05Z" transform="translate(-1.5 -7.5)" fill="#fff"/>
</svg>
